<svg width="860" height="396" viewBox="0 0 860 396" fill="none" xmlns="http://www.w3.org/2000/svg">
<path d="M192.423 37.5C254.744 37.631 311.88 37.9329 374.199 37.9121C375.79 37.9116 377.931 37.9173 380.047 38.1104C382.151 38.3023 384.291 38.6839 385.854 39.4648C387.385 40.2301 388.851 41.2761 390.174 43.04C391.491 44.7966 392.648 47.2417 393.605 50.7812L393.617 50.8232L393.621 50.8652C394.232 57.4057 393.949 63.708 393.623 70.1543C393.472 73.1405 393.031 75.5108 391.836 77.3223C390.626 79.1561 388.698 80.3411 385.752 81.082C381.926 82.0442 378.014 81.9462 374.199 81.9453C314.714 81.9317 255.225 81.9595 195.739 81.9385C172.062 81.9301 151.095 89.4212 133.284 104.961C117.687 118.57 108.344 136.253 103.128 156.028C93.2397 193.521 95.6513 230.146 113.233 265.011C128.307 294.902 153.159 310.653 186.524 312.561C211.3 313.977 236.084 312.797 260.938 312.966C294.243 313.192 327.545 312.988 360.858 313.031C364.113 313.035 367.366 313.13 370.612 313.231C373.861 313.333 377.101 313.443 380.342 313.48C386.033 313.546 390.772 315.107 394.415 318.13C398.056 321.152 400.556 325.596 401.839 331.346C403.991 340.99 398.896 350.759 389.556 355.348C384.934 357.618 380.043 357.811 375.197 357.813C325.875 357.839 276.553 357.856 226.73 357.876H226.723C211.431 357.635 196.578 357.951 181.743 357.393C124.161 355.226 76.3697 319.66 57.9902 265.184C47.7668 234.881 45.7792 203.886 48.7705 172.343C50.8706 150.198 56.0589 128.913 66.9805 109.334C86.9043 73.6168 117.11 51.3518 156.698 41.6973C168.419 38.8389 180.3 37.4745 192.423 37.5Z" fill="#FE846D" stroke="#DF7C7D"/>
<path d="M673.216 117.943C675.543 117.972 677.872 117.967 680.204 117.961C682.536 117.956 684.872 117.95 687.208 117.975C689.505 118 691.483 118.514 693.108 119.618C694.735 120.723 695.964 122.389 696.811 124.641C698.738 129.768 701.012 134.749 703.299 140.185V140.186C722.488 185.993 741.533 231.445 760.574 276.899C761.761 279.732 762.612 281.977 763.021 283.743C763.425 285.494 763.425 286.898 762.743 287.952C762.059 289.008 760.787 289.562 759.046 289.87C757.292 290.179 754.933 290.26 751.915 290.257C748.21 290.254 744.58 290.038 740.965 290.333C738.47 290.537 736.486 290.045 734.909 288.91C733.342 287.78 732.232 286.055 731.401 283.899C727.758 274.441 723.83 265.037 720.375 255.486C719.752 253.764 719.056 252.645 718.11 251.947C717.17 251.252 715.908 250.921 714.037 250.935C691.211 251.104 668.382 251.102 645.556 250.923C643.622 250.908 642.242 251.204 641.188 251.9C640.139 252.593 639.339 253.73 638.668 255.553C635.104 265.232 631.033 274.778 627.342 284.38C626.567 286.397 625.539 287.958 624.095 288.981C622.645 290.008 620.833 290.451 618.573 290.343C613.428 290.097 608.307 290.324 603.102 290.272C600.051 290.242 597.851 289.594 596.792 288.009C595.732 286.423 595.97 284.133 597.153 281.246C602.901 267.225 608.827 253.273 614.666 239.296C630.456 201.502 646.332 163.748 661.914 125.872C663.023 123.177 664.409 121.162 666.263 119.836C668.122 118.506 670.399 117.907 673.216 117.943ZM651.259 224.985H707.515C707.449 224.617 707.397 224.307 707.353 224.048C707.283 223.65 707.223 223.373 707.124 223.124C699.459 203.797 691.774 184.476 683.842 164.426L683.84 164.422C682.486 160.916 681.132 157.41 679.422 152.978C669.807 177.561 660.641 200.997 651.259 224.985Z" fill="white" stroke="#3B4230"/>
<path d="M287.085 166.543C299.663 166.71 312.411 170.667 321.338 180.228C322.124 181.07 322.746 181.77 323.866 181.727C324.235 181.502 324.468 181.251 324.619 180.985C324.786 180.693 324.871 180.356 324.907 179.971C324.944 179.58 324.927 179.164 324.906 178.712C324.886 178.273 324.861 177.794 324.895 177.332C325.105 174.421 325.682 172.343 327.06 170.987C328.44 169.629 330.518 169.102 333.445 169.002C336.453 168.899 339.466 168.917 342.468 168.978C345.97 169.051 348.382 169.591 349.882 171.128C351.383 172.665 351.848 175.073 351.835 178.511C351.75 201.164 351.691 223.818 351.647 246.472C351.624 258.286 351.688 270.123 351.646 281.942C351.634 285.167 351.293 287.331 349.944 288.64C349.266 289.298 348.373 289.701 347.256 289.943C346.144 290.185 344.775 290.275 343.114 290.284C340.113 290.301 337.11 290.282 334.114 290.274C330.947 290.266 328.702 289.804 327.226 288.404C325.75 287.004 325.161 284.778 324.981 281.581C324.874 279.687 324.934 277.767 324.952 274.881C316.236 284.309 306.495 289.971 294.322 291.93L294.307 291.933L294.29 291.934C277.494 293.522 261.948 291.29 248.853 280.224C230.647 264.839 225.36 244.384 227.423 221.779C229.162 202.719 237.178 186.715 253.592 175.675C262.036 169.995 274.511 166.376 287.085 166.543ZM303.983 194.851C294.221 191.019 284.645 190.916 276.571 194.029C268.494 197.144 261.885 203.491 258.08 212.627C254.81 220.479 254.234 228.687 255.455 237.277C259.15 263.266 289.265 276.346 310.337 260.732C319.091 254.246 322.951 244.952 324.37 234.102C326.529 217.592 319.278 202.659 303.983 194.851Z" fill="white" stroke="#3B4230"/>
<path d="M432.348 188.013C446.374 169.485 473.395 161.741 495.443 169.105C501.963 171.283 507.49 175.047 512.454 179.678C512.767 179.969 513.056 180.288 513.329 180.593C513.607 180.903 513.87 181.198 514.15 181.472C514.637 181.948 515.153 182.33 515.805 182.534C517.121 180.982 516.896 179.093 516.865 177.004C516.827 174.551 517.426 172.622 518.706 171.278C519.986 169.936 521.871 169.256 524.241 169.141C528.065 168.954 531.922 168.82 535.764 168.965C538.569 169.07 540.603 169.644 541.923 171.014C543.243 172.382 543.744 174.435 543.769 177.223C543.909 192.702 543.983 208.181 544.068 224.123V224.13C543.913 243.232 543.772 261.87 543.638 280.508C543.623 282.598 543.557 284.26 543.331 285.564C543.105 286.872 542.707 287.883 541.982 288.621C541.255 289.36 540.26 289.762 538.975 289.985C537.694 290.208 536.067 290.263 534.021 290.263C530.829 290.262 527.698 290.131 524.554 290.269C522.123 290.375 520.289 289.769 519.028 288.5C517.777 287.242 517.167 285.41 517.008 283.225C516.826 280.705 516.941 278.141 516.964 275.093C516.686 275.28 516.456 275.434 516.262 275.564C515.904 275.805 515.685 275.964 515.495 276.142C482.45 307.197 432.024 292.344 421.295 248.201C416.062 226.67 418.68 206.068 432.348 188.013ZM492.721 193.711C479.586 189.672 467.056 191.313 457.12 201.377C441.254 217.447 443.614 247.132 462.03 261.505C471.929 267.218 482.043 268.728 490.906 266.438C499.772 264.148 507.438 258.044 512.42 248.435C516.875 239.841 517.724 230.6 515.91 221.102C513.325 207.577 506.033 197.804 492.721 193.711Z" fill="white" stroke="#3B4230"/>
<path d="M197.663 112.597C200.066 112.544 201.873 113.196 203.137 114.477C204.389 115.745 205.041 117.563 205.287 119.707C205.499 121.556 205.403 123.457 205.403 125.254C205.397 168.058 205.376 210.863 205.38 253.667C205.38 259.008 206.156 262.193 208.099 264.023C210.045 265.854 213.304 266.462 218.683 266.212C221.155 266.097 223.067 266.547 224.395 267.764C225.721 268.979 226.362 270.865 226.514 273.379C226.754 277.326 226.878 280.421 226.664 282.835C226.45 285.251 225.892 287.063 224.703 288.383C223.513 289.704 221.761 290.455 219.336 290.91C216.913 291.365 213.743 291.536 209.648 291.638C200.864 291.857 193.174 290.06 187.546 285.471C181.905 280.872 178.415 273.537 177.898 262.861C177.641 257.544 177.377 252.226 177.115 246.412L177.114 246.402V246.39C177.113 206.254 177.112 166.614 177.118 126.975C177.118 124.996 177.064 122.954 177.239 120.94C177.509 117.832 178.098 115.701 179.525 114.375C180.954 113.048 183.106 112.636 186.179 112.615C190.036 112.589 193.833 112.682 197.663 112.597Z" fill="white" stroke="#3B4230"/>
<path d="M397.457 254.042C397.459 259.16 398.273 262.29 400.214 264.118C402.159 265.947 405.371 266.602 410.547 266.37C413.253 266.248 415.298 266.617 416.651 267.83C418.013 269.052 418.546 271.012 418.537 273.733C418.531 275.283 418.565 276.704 418.594 278.012C418.624 279.317 418.65 280.514 418.63 281.602C418.592 283.766 418.373 285.581 417.576 287.043C416.763 288.533 415.39 289.586 413.206 290.32C411.037 291.048 408.028 291.474 403.878 291.698C393.752 292.243 385.381 289.8 379.47 284.602C373.556 279.401 370.173 271.502 369.907 261.275C368.995 226.303 369.143 191.334 369.773 156.366C369.986 144.543 369.773 132.745 369.854 120.899C369.874 117.902 370.32 115.805 371.666 114.471C373.01 113.14 375.128 112.69 378.131 112.626C381.303 112.559 384.477 112.59 387.638 112.613C391.289 112.639 393.726 113.025 395.25 114.579C396.014 115.358 396.511 116.391 396.843 117.708C397.175 119.022 397.351 120.649 397.452 122.647V122.672C397.452 166.775 397.449 210.409 397.457 254.042Z" fill="white" stroke="#3B4230"/>
<path d="M787.192 169.109C791.367 168.893 795.561 169 799.718 169.098C801.885 169.149 803.617 169.787 804.876 170.99C806.131 172.189 806.86 173.897 807.131 175.988C807.327 177.503 807.338 179.043 807.339 180.537C807.35 213.356 807.359 246.175 807.343 278.993C807.342 281.358 807.257 283.251 806.979 284.752C806.699 286.257 806.216 287.417 805.378 288.272C804.539 289.128 803.401 289.621 801.929 289.905C800.462 290.187 798.615 290.27 796.315 290.27C793.328 290.27 790.315 290.313 787.314 290.282C784.481 290.252 782.415 289.808 781.063 288.528C779.706 287.242 779.188 285.226 779.136 282.383C778.976 273.717 779.081 265.04 779.078 256.386C779.073 236.895 779.071 217.404 779.067 197.412V197.411C779.071 190.426 778.965 183.911 779.112 177.41C779.175 174.647 779.722 172.606 781.059 171.232C782.395 169.858 784.423 169.252 787.192 169.109Z" fill="white" stroke="#3B4230"/>
<path d="M783.52 118.192C787.801 116.053 793.163 115.881 798.896 117.071C803.879 118.105 807.781 121.699 809.976 126.23C812.17 130.76 812.684 136.275 810.849 141.215C810.373 142.494 809.639 143.693 808.852 145.151L808.825 145.198L808.79 145.24C805.339 149.236 801.321 151.752 797.032 152.714C792.742 153.677 788.219 153.076 783.78 150.908C776.988 147.591 773.089 139.026 774.757 130.906C776.086 124.437 779.215 120.342 783.52 118.192Z" fill="white" stroke="#3B4230"/>
</svg>
