<svg width="600" height="600" viewBox="0 0 600 600" fill="none" xmlns="http://www.w3.org/2000/svg">
<path d="M196.423 138.5C258.744 138.632 315.88 138.937 378.199 138.916C379.79 138.915 381.931 138.922 384.047 139.117C386.151 139.311 388.292 139.696 389.855 140.485C391.387 141.258 392.853 142.315 394.175 144.096C395.409 145.759 396.504 148.033 397.425 151.256L397.606 151.913L397.617 151.954L397.621 151.996C398.232 158.602 397.949 164.967 397.623 171.479C397.472 174.494 397.032 176.887 395.838 178.715C394.629 180.566 392.7 181.764 389.753 182.513C385.927 183.485 382.014 183.385 378.199 183.384C318.714 183.37 259.225 183.399 199.739 183.378C176.063 183.369 155.097 190.936 137.286 206.633C121.689 220.379 112.344 238.241 107.128 258.218C97.2391 296.091 99.6512 333.089 117.234 368.309C132.309 398.504 157.162 414.412 190.524 416.339C215.3 417.77 240.084 416.578 264.938 416.748C298.243 416.976 331.545 416.771 364.858 416.814C368.113 416.819 371.366 416.914 374.612 417.017C377.861 417.12 381.101 417.231 384.342 417.269C390.034 417.335 394.774 418.912 398.417 421.965C402.058 425.017 404.557 429.505 405.839 435.311C407.989 445.046 402.899 454.912 393.558 459.548C388.935 461.842 384.043 462.036 379.197 462.038C329.875 462.064 280.553 462.082 230.73 462.102H230.723C215.432 461.858 200.577 462.177 185.742 461.613C128.157 459.425 80.3673 423.498 61.9893 368.475C51.7664 337.867 49.7792 306.561 52.7705 274.7C54.8705 252.333 60.0586 230.834 70.9795 211.059C90.9024 174.982 121.108 152.492 160.697 142.739C172.419 139.852 184.3 138.474 196.423 138.5Z" fill="#FE846D" stroke="#DF7C7D"/>
<path d="M291.085 268.846C303.664 269.015 316.413 273.013 325.34 282.671C326.126 283.521 326.748 284.227 327.864 284.184C328.233 283.958 328.466 283.703 328.618 283.434C328.786 283.137 328.871 282.796 328.907 282.405C328.944 282.01 328.927 281.59 328.906 281.133C328.886 280.69 328.861 280.206 328.895 279.74C329.105 276.801 329.681 274.703 331.058 273.336C332.438 271.964 334.517 271.43 337.445 271.33C340.454 271.226 343.466 271.244 346.468 271.306C349.971 271.379 352.384 271.926 353.884 273.478C355.383 275.029 355.848 277.459 355.835 280.93C355.75 303.813 355.691 326.695 355.647 349.578C355.624 361.511 355.688 373.467 355.646 385.406C355.64 387.055 355.547 388.411 355.296 389.512C355.044 390.62 354.626 391.501 353.946 392.167C353.268 392.832 352.375 393.238 351.257 393.483C350.144 393.727 348.775 393.818 347.114 393.828C344.113 393.845 341.11 393.825 338.114 393.817C334.946 393.809 332.7 393.342 331.224 391.927C329.749 390.515 329.16 388.269 328.981 385.041C328.874 383.127 328.934 381.187 328.952 378.27C320.237 387.792 310.496 393.511 298.323 395.49L298.307 395.493L298.291 395.494C281.494 397.098 265.946 394.843 252.851 383.665C234.646 368.126 229.36 347.467 231.423 324.636C233.162 305.387 241.177 289.223 257.59 278.071C266.035 272.333 278.51 268.678 291.085 268.846ZM307.984 297.431C298.222 293.56 288.646 293.456 280.572 296.6C272.496 299.746 265.886 306.157 262.081 315.386C258.811 323.319 258.234 331.613 259.455 340.292C263.151 366.552 293.269 379.755 314.335 363.988C323.089 357.436 326.951 348.046 328.37 337.084C330.529 320.403 323.276 305.319 307.984 297.431Z" fill="white" stroke="#3B4230"/>
<path d="M436.347 290.533C450.372 271.819 477.393 263.996 499.444 271.435C505.964 273.635 511.492 277.437 516.456 282.114C516.769 282.409 517.057 282.731 517.33 283.039C517.609 283.352 517.871 283.65 518.152 283.926C518.639 284.407 519.153 284.793 519.803 284.999C521.121 283.428 520.896 281.517 520.865 279.408C520.828 276.933 521.426 274.986 522.705 273.63C523.985 272.274 525.87 271.587 528.241 271.47C532.065 271.282 535.922 271.147 539.764 271.293C542.57 271.399 544.604 271.98 545.924 273.363C547.242 274.744 547.744 276.815 547.769 279.629C547.909 295.264 547.983 310.9 548.068 327.003V327.009C547.913 346.305 547.772 365.131 547.638 383.958C547.623 386.069 547.557 387.747 547.331 389.064C547.105 390.384 546.708 391.403 545.984 392.147C545.257 392.894 544.262 393.3 542.976 393.526C541.695 393.751 540.067 393.806 538.021 393.805C534.828 393.804 531.698 393.672 528.554 393.811C526.122 393.919 524.287 393.306 523.026 392.025C521.776 390.756 521.166 388.907 521.008 386.701C520.826 384.155 520.941 381.564 520.964 378.483C520.686 378.672 520.457 378.828 520.264 378.959C519.906 379.202 519.687 379.362 519.497 379.542L519.496 379.541C486.447 410.914 436.021 395.904 425.294 351.322C420.062 329.575 422.68 308.769 436.347 290.533ZM496.72 296.279C483.587 292.2 471.058 293.855 461.121 304.021C445.252 320.257 447.614 350.251 466.034 364.769C475.932 370.539 486.044 372.062 494.905 369.751C503.77 367.438 511.437 361.273 516.42 351.565C520.876 342.883 521.725 333.545 519.91 323.949C517.325 310.284 510.03 300.413 496.72 296.279Z" fill="white" stroke="#3B4230"/>
<path d="M201.662 214.355C204.067 214.301 205.875 214.962 207.139 216.255C208.389 217.535 209.041 219.369 209.287 221.533C209.499 223.4 209.403 225.32 209.403 227.136C209.397 270.372 209.376 313.609 209.38 356.846C209.38 362.241 210.156 365.462 212.101 367.311C214.047 369.161 217.304 369.775 222.682 369.522C225.155 369.406 227.069 369.86 228.397 371.09C229.722 372.316 230.362 374.219 230.514 376.758C230.754 380.745 230.878 383.87 230.664 386.308C230.45 388.746 229.893 390.575 228.705 391.907C227.515 393.241 225.763 394 223.337 394.46C220.913 394.919 217.743 395.092 213.648 395.195C204.863 395.416 197.172 393.6 191.544 388.965C185.904 384.32 182.415 376.913 181.898 366.132C181.641 360.762 181.377 355.39 181.115 349.517L181.114 349.507V349.495C181.113 308.954 181.112 268.914 181.118 228.874C181.118 226.874 181.064 224.813 181.239 222.779C181.509 219.641 182.097 217.49 183.523 216.152C184.952 214.812 187.105 214.395 190.179 214.374C194.036 214.348 197.833 214.441 201.662 214.355Z" fill="white" stroke="#3B4230"/>
<path d="M401.458 357.225C401.459 362.395 402.273 365.559 404.216 367.406C406.16 369.254 409.371 369.916 414.546 369.682C417.253 369.559 419.299 369.931 420.653 371.157C422.014 372.39 422.546 374.368 422.537 377.114C422.531 378.68 422.565 380.116 422.594 381.437C422.624 382.754 422.65 383.963 422.63 385.062C422.592 387.247 422.373 389.08 421.577 390.555C420.765 392.058 419.393 393.122 417.208 393.863C415.038 394.599 412.029 395.029 407.878 395.255C397.751 395.805 389.38 393.338 383.469 388.088C377.556 382.835 374.173 374.857 373.907 364.529C372.995 329.205 373.143 293.883 373.773 258.562C373.986 246.62 373.773 234.701 373.854 222.736C373.874 219.711 374.319 217.594 375.665 216.248C377.008 214.904 379.127 214.45 382.131 214.386C385.303 214.317 388.477 214.348 391.638 214.371C395.29 214.397 397.727 214.789 399.251 216.358C400.014 217.144 400.511 218.186 400.843 219.516C401.175 220.841 401.351 222.484 401.452 224.502V224.527C401.452 269.075 401.449 313.15 401.458 357.225Z" fill="white" stroke="#3B4230"/>
</svg>
